<svg width="879" height="882" viewBox="0 0 879 882" fill="none" xmlns="http://www.w3.org/2000/svg">
<ellipse cx="439.5" cy="441" rx="439.5" ry="441" fill="white"/>
<path d="M636 288.5V180L607 176L575 172L545 170.5H520L496.5 174L463.5 184.5L436 198L412.5 219L394 244L381.5 271L375 297L371.5 319.5L370 338.5V439H258.5V568.5H370V876.546C370 876.546 399.5 882 441 882C482.5 882 509.5 876.5 509.5 876.5V568.5H611L629 439H509.5C509.5 439 508.5 342 509.5 339C510.5 336 511.5 330.5 511.5 330.5L516.5 320.5C518.5 316.5 525.5 307 525.5 307L535 299.5L545 295L554.5 291L565 288.5H636Z" fill="#1777F0"/>
</svg>
