<svg xmlns="http://www.w3.org/2000/svg" viewBox="0 0 284.83 96"><defs><style>.cls-1{fill:#ff8a05;}</style></defs><g id="Layer_2" data-name="Layer 2"><g id="Layer_1-2" data-name="Layer 1"><path class="cls-1" d="M16,71a9,9,0,1,1-9,9,9,9,0,0,1,9-9m0-7A16,16,0,1,0,32,80,16,16,0,0,0,16,64Z"/><path class="cls-1" d="M80,71a9,9,0,1,1-9,9,9,9,0,0,1,9-9m0-7A16,16,0,1,0,96,80,16,16,0,0,0,80,64Z"/><path class="cls-1" d="M16,7a9,9,0,1,1-9,9,9,9,0,0,1,9-9m0-7A16,16,0,1,0,32,16,16,16,0,0,0,16,0Z"/><path class="cls-1" d="M80,7a9,9,0,1,1-9,9,9,9,0,0,1,9-9m0-7A16,16,0,1,0,96,16,16,16,0,0,0,80,0Z"/><rect class="cls-1" x="29" y="75.5" width="37" height="9"/><rect class="cls-1" x="29" y="10.5" width="37" height="9"/><rect class="cls-1" x="-3.5" y="43" width="39" height="9" transform="translate(63.5 31.5) rotate(90)"/><rect class="cls-1" x="60.5" y="43" width="39" height="9" transform="translate(127.5 -32.5) rotate(90)"/><rect class="cls-1" x="16.58" y="44.25" width="64.35" height="9" transform="translate(48.75 117.69) rotate(-135)"/><path class="cls-1" d="M142.88,33.4c-5.06,0-7.88,2.32-7.92,5.52,0,3.49,3.56,5,7.72,6L147,46c8.25,1.9,14.4,6.09,14.43,14.1,0,8.81-6.88,14.46-18.62,14.43s-19-5.35-19.35-15.69h9.71c.33,4.85,4.19,7.31,9.51,7.31s8.64-2.46,8.64-6c0-3.29-3-4.82-8.24-6.12l-5.26-1.26c-8.11-2-13.1-6-13.1-13.1,0-8.74,7.68-14.56,18.22-14.56s17.69,5.92,17.83,14.43h-9.58C150.79,35.62,147.77,33.4,142.88,33.4Z"/><path class="cls-1" d="M166.28,55.87c0-11.14,6.78-18.62,17.69-18.62s17.72,7.48,17.75,18.62S194.91,74.52,184,74.56,166.25,67,166.28,55.87Zm17.75,11c5,0,7.68-4.72,7.65-11s-2.63-11.1-7.65-11.1-7.78,4.75-7.78,11.1S178.88,66.88,184,66.91Z"/><path class="cls-1" d="M231,37.72h9.84V73.83h-9.44V67.31H231c-1.63,4.19-5.52,7-11,7-7.21,0-12.17-5.12-12.17-13.56v-23h9.84V59c0,4.29,2.46,7,6.32,7,3.59,0,7-2.59,7-7.51Z"/><path class="cls-1" d="M248.72,25.68h18.89c10.94,0,17.22,6.75,17.22,16.23s-6.38,16.22-17.49,16.22H258.7v15.7h-10Zm17,24.41c5.92,0,8.81-3.33,8.78-8.18s-2.86-8-8.78-8H258.7V50.09Z"/></g></g></svg>