<svg xmlns="http://www.w3.org/2000/svg" xmlns:xlink="http://www.w3.org/1999/xlink" viewBox="0 0 281.42 72"><defs><style>.cls-1{fill:none;}.cls-2{fill:#ff8a05;}.cls-3{clip-path:url(#clip-path);}.cls-4{opacity:0.75;fill:url(#radial-gradient);}</style><clipPath id="clip-path"><circle class="cls-1" cx="78.11" cy="36" r="36"/></clipPath><radialGradient id="radial-gradient" cx="-357.33" cy="-626.31" r="50.92" gradientTransform="translate(1206.66 1716.5) scale(3.33 2.8)" gradientUnits="userSpaceOnUse"><stop offset="0" stop-color="#ffbd78" stop-opacity="0.3"/><stop offset="0.12" stop-color="#ffb568" stop-opacity="0.46"/><stop offset="0.26" stop-color="#ffad58" stop-opacity="0.62"/><stop offset="0.4" stop-color="#ffa74b" stop-opacity="0.76"/><stop offset="0.55" stop-color="#ffa240" stop-opacity="0.86"/><stop offset="0.69" stop-color="#ff9e39" stop-opacity="0.94"/><stop offset="0.84" stop-color="#ff9c34" stop-opacity="0.99"/><stop offset="1" stop-color="#ff9b33"/></radialGradient></defs><g id="Layer_4" data-name="Layer 4"><path class="cls-2" d="M143.64,36A36,36,0,0,1,92.89,68.85a36,36,0,0,0,0-65.7A36,36,0,0,1,143.64,36Z"/><g class="cls-3"><rect class="cls-4" x="-143.04" y="-184.78" width="322.73" height="297.8"/></g><path class="cls-2" d="M56.61,49.46C56.61,61.57,46.28,72,29.3,72,16.68,72,2.88,67.23,0,53.33l17.58-5.46c.4,3.57,4.37,7,10.82,7,5.37,0,7.75-2.38,7.75-5.07,0-4.17-5.26-4.56-12.22-6.25C10.53,40.32,2.78,34.76,2.78,22.15,2.78,8.84,13.9,0,29.2,0,41.41,0,52.14,6.26,54.72,18.27L37.24,22.54c-.79-2.78-3.18-5.36-7.84-5.36-4,0-7,1.69-7,4.87,0,4,6.06,4.57,11.42,6.05C50.85,32.77,56.61,38.43,56.61,49.46Z"/><path class="cls-2" d="M213.49,1.19V42.41c0,20.65-11.91,29.59-30.78,29.59s-30.89-8.94-30.89-29.59V1.19h20.56V40.62c0,7.84,4,11.42,10.33,11.42s10.23-3.58,10.23-11.42V1.19Z"/><path class="cls-2" d="M281.42,27C281.42,43.5,270.49,51,252.91,51H245V70.71H224.41V1.19h28.5C272.18,1.19,281.42,11.42,281.42,27Zm-20.76,0c0-4.17-2.58-7.15-7.75-7.15H245v14.2h7.94C257.88,34.06,260.66,31.48,260.66,27Z"/><path class="cls-1" d="M114.13,36A36,36,0,0,1,92.89,68.85a36,36,0,0,1,0-65.7A36,36,0,0,1,114.13,36Z"/><path class="cls-1" d="M92.89,68.85a36,36,0,1,1,0-65.7,36,36,0,0,0,0,65.7Z"/></g></svg>